<?xml version="1.0" standalone="no"?>
<!DOCTYPE svg PUBLIC "-//W3C//DTD SVG 20010904//EN"
 "http://www.w3.org/TR/2001/REC-SVG-20010904/DTD/svg10.dtd">
<svg version="1.0" xmlns="http://www.w3.org/2000/svg"
 width="1251.000000pt" height="1251.000000pt" viewBox="0 0 1251.000000 1251.000000"
 preserveAspectRatio="xMidYMid meet">
<metadata>
Created by potrace 1.11, written by Peter Selinger 2001-2013
</metadata>
<g transform="translate(0.000000,1251.000000) scale(0.100000,-0.100000)"
fill="#000000" stroke="none">
<path d="M2210 7295 l0 -3805 1125 0 1125 0 0 -860 0 -860 230 0 230 0 0 859
0 859 88 7 c148 10 361 35 482 56 380 65 797 209 1110 383 63 36 117 63 120
61 3 -2 145 -242 315 -534 l310 -531 154 2 155 3 1210 2075 1211 2074 3 -2657
2 -2657 225 0 225 0 0 3100 0 3100 -227 0 -228 -1 -1284 -2205 c-706 -1212
-1287 -2206 -1291 -2209 -3 -2 -99 154 -212 348 l-206 352 72 64 c650 583
1044 1388 1160 2371 99 832 -7 1686 -295 2374 -460 1096 -1359 1790 -2567
1981 -309 49 -280 48 -1804 52 l-1438 4 0 -3806z m2746 3295 c802 -49 1440
-316 1934 -810 219 -218 387 -454 530 -745 204 -415 315 -835 360 -1360 13
-153 13 -583 0 -740 -72 -876 -367 -1589 -874 -2110 -53 -55 -99 -95 -102 -90
-3 6 -427 735 -943 1620 l-939 1610 -231 3 -231 2 0 -1990 0 -1990 -850 0
-850 0 0 3305 0 3305 1018 0 c559 0 1090 -5 1178 -10z m727 -4811 c416 -713
759 -1303 762 -1312 8 -19 -68 -68 -256 -161 -355 -177 -752 -278 -1211 -309
l-58 -4 0 1545 c0 850 2 1543 4 1541 1 -2 343 -587 759 -1300z"/>
<path d="M6040 8251 c-163 -53 -251 -208 -206 -363 35 -121 132 -198 262 -206
62 -4 79 -1 130 22 77 35 116 74 149 149 24 52 27 69 23 131 -8 113 -63 198
-163 246 -50 24 -152 35 -195 21z"/>
</g>
</svg>
