<svg id="Layer_1" data-name="Layer 1" xmlns="http://www.w3.org/2000/svg" viewBox="0 0 355.37 128.67"><defs><style>.cls-1{fill:#fff;}</style></defs><title>logo-white</title><g id="Mooring"><g id="Dots"><circle class="cls-1" cx="55.4" cy="104.13" r="2.23"/><circle class="cls-1" cx="115.23" cy="104.13" r="2.23"/><circle class="cls-1" cx="175.06" cy="104.13" r="2.23"/><circle class="cls-1" cx="224.36" cy="104.13" r="2.23"/><circle class="cls-1" cx="247.44" cy="104.13" r="2.23"/><circle class="cls-1" cx="305.32" cy="104.13" r="2.23"/></g><g id="Text"><path class="cls-1" d="M52.15,89.84l-19,32.59H30.82l-19-32.59v41.65H8.32V83.09h3.47L32,117.72,52.15,83.09h3.48v48.4H52.15Z" transform="translate(-8.32 -3.16)"/><path class="cls-1" d="M94.5,82.75c13.5,0,22.63,12.47,22.63,24.54,0,13-9.81,24.55-22.7,24.55C81,131.77,71.8,119.7,71.8,107.29,71.8,94.41,81.61,82.75,94.5,82.75Zm19.09,24.54c0-11.11-8-21.34-19.09-21.34-11.59,0-19.23,10.77-19.23,21.34,0,11.11,7.91,21.34,19.23,21.34C106.09,128.63,113.59,117.79,113.59,107.29Z" transform="translate(-8.32 -3.16)"/><path class="cls-1" d="M152.66,82.75c13.5,0,22.63,12.47,22.63,24.54,0,13-9.81,24.55-22.7,24.55C139.16,131.77,130,119.7,130,107.29,130,94.41,139.77,82.75,152.66,82.75Zm19.09,24.54c0-11.11-8.05-21.34-19.09-21.34-11.59,0-19.23,10.77-19.23,21.34,0,11.11,7.91,21.34,19.23,21.34C164.25,128.63,171.75,117.79,171.75,107.29Z" transform="translate(-8.32 -3.16)"/><path class="cls-1" d="M191.46,83.09h20.11c8.18,0,14.11,7.64,14.11,15,0,7.16-4.57,13.56-11.38,14.59l12.06,18.81h-4l-11.73-18.27H194.93v18.27h-3.47ZM211.91,110c6.27,0,10.29-5.86,10.29-11.93s-4.84-11.86-10.77-11.86h-16.5V110Z" transform="translate(-8.32 -3.16)"/><path class="cls-1" d="M242.53,83.09H246v48.4h-3.47Z" transform="translate(-8.32 -3.16)"/><path class="cls-1" d="M269,131.49H265.5V83.09h2.87l33.74,42.61V83.09h3.48v48.4h-3.41L269,89.57Z" transform="translate(-8.32 -3.16)"/><path class="cls-1" d="M363.68,108v23.52h-3v-7.56c-4.7,5.25-10.09,7.91-16.29,7.91-13.16,0-22.7-12.41-22.7-24.62,0-12.81,9.34-24.47,22.29-24.47,9.68,0,15.34,4.36,18.48,10.57L359.59,95c-3.27-6.34-8.86-9.07-15.68-9.07-11.52,0-18.75,10.64-18.75,21.34,0,11.39,8.59,21.34,19.43,21.34,5.94,0,11.19-2.66,16.09-8.52v-9.34h-11V108Z" transform="translate(-8.32 -3.16)"/></g></g><g id="Dalton"><g id="Dots-2" data-name="Dots"><circle class="cls-1" cx="57.71" cy="30.11" r="2.23"/><circle class="cls-1" cx="117.84" cy="30.11" r="2.23"/><circle class="cls-1" cx="175.09" cy="30.3" r="2.23"/><circle class="cls-1" cx="216.41" cy="30.11" r="2.23"/><circle class="cls-1" cx="296.28" cy="30.11" r="2.23"/></g><g id="Text-2" data-name="Text"><path class="cls-1" d="M8.32,3.58H28.06c18.81,0,28.18,13.22,28.18,29.61,0,18-11,29.78-28.18,29.78H8.32Zm4.26,3.85V59.12H28.06C43.7,59.12,52,47.91,52,33.19c0-15-8.62-25.76-23.92-25.76Z" transform="translate(-8.32 -3.16)"/><path class="cls-1" d="M96.55,3.58,121.65,63h-4.52l-8.28-19.58H80.5L72.21,63h-4.6L92.87,3.58ZM94.71,8.77,81.5,39.88h26.18Z" transform="translate(-8.32 -3.16)"/><path class="cls-1" d="M139,3.58h4.26V59.12h35.47V63H139Z" transform="translate(-8.32 -3.16)"/><path class="cls-1" d="M206.2,7.43V63h-4.27V7.43H180.19V3.58h47.75V7.43Z" transform="translate(-8.32 -3.16)"/><path class="cls-1" d="M266.92,3.16c16.56,0,27.76,15.31,27.76,30.11,0,16-12,30.11-27.85,30.11-16.47-.08-27.77-14.88-27.77-30.11C239.06,17.47,251.11,3.16,266.92,3.16Zm23.42,30.11c0-13.63-9.87-26.17-23.42-26.17-14.22,0-23.59,13.21-23.59,26.17,0,13.64,9.7,26.18,23.59,26.18C281.14,59.45,290.34,46.15,290.34,33.27Z" transform="translate(-8.32 -3.16)"/><path class="cls-1" d="M318.77,63H314.5V3.58H318l41.4,52.28V3.58h4.26V63H359.5L318.77,11.53Z" transform="translate(-8.32 -3.16)"/></g></g></svg>